<svg viewBox="0 0 301 228" fill="none" xmlns="http://www.w3.org/2000/svg">
<path d="M300.081 131.318L190.871 190.145V56.7058L300.081 22.6118V131.318Z" fill="#E8E8E8"/>
<path d="M190.871 56.7062L61.9502 43.6642L35.5284 4.68321C35.2227 4.23212 35.0455 3.70627 35.0161 3.16211C34.9867 2.61795 35.106 2.07604 35.3613 1.59459C35.6166 1.11313 35.9982 0.710319 36.4652 0.429382C36.9321 0.148446 37.4668 9.21892e-07 38.0117 0H159.457C160.005 9.52126e-07 160.543 0.150266 161.011 0.434448C161.48 0.718631 161.862 1.12587 162.116 1.61192L190.871 56.7062Z" fill="#DFDFDF"/>
<path d="M61.9482 177.103L16.924 167.735C16.2489 167.594 15.6429 167.226 15.2078 166.691C14.7727 166.156 14.5352 165.487 14.5352 164.798V37.4871C14.5352 37.0412 14.6345 36.601 14.826 36.1984C15.0175 35.7958 15.2963 35.441 15.6422 35.1597C15.988 34.8784 16.3923 34.6777 16.8254 34.5722C17.2586 34.4667 17.7098 34.4592 18.1463 34.55L61.9482 43.664V177.103ZM234.334 204.615L190.869 190.145V56.706L236.23 71.8073C236.827 72.0063 237.347 72.3883 237.715 72.8991C238.084 73.41 238.282 74.0239 238.282 74.6537V201.769C238.282 202.244 238.169 202.713 237.952 203.136C237.736 203.559 237.422 203.924 237.036 204.202C236.651 204.48 236.205 204.663 235.735 204.735C235.265 204.806 234.785 204.766 234.334 204.615Z" fill="#DFDFDF"/>
<path d="M190.87 190.145L61.9492 177.103V43.6638L190.87 56.7058V190.145Z" fill="#E8E8E8"/>
<path d="M158.087 225.848L26.543 220.599L61.949 177.103L190.87 190.145L160.462 224.828C160.167 225.164 159.801 225.431 159.39 225.607C158.979 225.783 158.534 225.866 158.087 225.848V225.848Z" fill="#DFDFDF"/>
<path d="M190.87 56.7058L300.08 22.6118L166.59 10.1858L190.87 56.7058Z" fill="#EFEFEF"/>
<path d="M61.9492 177.103L190.87 116.905V56.7058L61.9492 43.6638V177.103Z" fill="#EFEFEF"/>
<path d="M69.6802 133.62C69.6802 133.62 83.7649 127.458 87.5062 131.859C91.2475 136.26 99.6102 138.241 99.6102 138.241L106.873 125.917L126.679 135.16L137.463 149.905L130.421 167.291C130.421 167.291 116.116 167.071 109.293 169.932C102.471 172.793 84.6453 173.013 84.6453 173.013L76.5026 157.387C76.5026 157.387 66.1591 142.202 69.6802 133.62Z" fill="#BBBBBB"/>
<path d="M99.6094 138.241C100.964 139.441 102.265 140.686 103.54 141.953C104.826 143.21 106.064 144.508 107.307 145.801C108.522 147.117 109.771 148.406 110.95 149.753C112.139 151.091 113.35 152.411 114.5 153.783L111.964 155.037C111.389 152.644 110.822 150.25 110.313 147.842C109.794 145.437 109.35 143.015 108.884 140.598C108.036 135.744 107.246 130.878 106.872 125.917C108.668 130.556 110.048 135.289 111.371 140.035C111.991 142.418 112.632 144.796 113.198 147.19C113.775 149.582 114.292 151.988 114.803 154.395L114.807 154.416C114.874 154.734 114.833 155.065 114.691 155.357C114.548 155.649 114.312 155.884 114.02 156.026C113.727 156.168 113.396 156.208 113.079 156.14C112.761 156.071 112.475 155.899 112.267 155.649C111.121 154.275 110.036 152.849 108.93 151.442C107.813 150.043 106.766 148.586 105.686 147.156C104.633 145.704 103.575 144.256 102.566 142.767C101.545 141.288 100.551 139.787 99.6094 138.241Z" fill="#E8E8E8"/>
<path d="M126.68 135.16C125.839 136.972 124.894 138.712 123.952 140.455C122.985 142.18 122.012 143.901 120.986 145.586C119.989 147.292 118.916 148.945 117.87 150.617C116.815 152.283 115.702 153.908 114.62 155.556L113.092 153.251C115.097 152.84 117.109 152.466 119.124 152.109C121.147 151.793 123.159 151.417 125.192 151.15C127.219 150.849 129.256 150.604 131.297 150.374C133.345 150.18 135.39 149.972 137.463 149.905C135.524 150.641 133.555 151.234 131.59 151.842C129.618 152.414 127.642 152.97 125.656 153.472C123.676 154.007 121.675 154.432 119.685 154.918C117.687 155.363 115.686 155.791 113.678 156.181L113.646 156.187C113.355 156.244 113.055 156.212 112.782 156.096C112.51 155.98 112.278 155.786 112.117 155.537C111.956 155.289 111.873 154.998 111.879 154.702C111.885 154.406 111.979 154.118 112.149 153.876C113.284 152.265 114.386 150.631 115.547 149.038C116.717 147.45 117.86 145.844 119.079 144.29C120.268 142.716 121.511 141.178 122.76 139.644C124.033 138.127 125.304 136.608 126.68 135.16Z" fill="#E8E8E8"/>
<path d="M130.422 167.291C128.797 166.521 127.26 165.632 125.714 164.754C124.189 163.85 122.677 162.927 121.195 161.963C118.215 160.059 115.33 158.025 112.498 155.919L114.664 155.491C112.952 158.281 111.178 161.033 109.275 163.707C108.343 165.056 107.355 166.371 106.362 167.683C105.345 168.98 104.328 170.277 103.207 171.512C103.783 169.947 104.462 168.445 105.142 166.943C105.845 165.456 106.553 163.971 107.318 162.521C108.807 159.596 110.426 156.75 112.107 153.941C112.207 153.774 112.339 153.628 112.496 153.511C112.653 153.395 112.831 153.31 113.021 153.263C113.21 153.215 113.407 153.205 113.601 153.234C113.794 153.262 113.98 153.329 114.147 153.429L114.26 153.504L114.273 153.513C117.12 155.599 119.914 157.757 122.612 160.044C123.97 161.176 125.297 162.349 126.611 163.54C127.904 164.758 129.207 165.965 130.422 167.291Z" fill="#E8E8E8"/>
<path d="M69.6797 133.62C77.2828 136.475 84.6989 139.717 92.0878 143.016C95.7654 144.7 99.4512 146.368 103.095 148.122C106.758 149.836 110.387 151.621 114.015 153.409L114.026 153.415C114.257 153.528 114.453 153.702 114.595 153.917C114.737 154.132 114.819 154.38 114.833 154.638C114.847 154.895 114.793 155.151 114.675 155.38C114.557 155.609 114.381 155.803 114.163 155.941C111.768 157.465 109.323 158.91 106.902 160.395C104.486 161.886 102.017 163.294 99.5768 164.748C97.1128 166.165 94.6597 167.598 92.1666 168.968C89.6852 170.357 87.1779 171.705 84.6447 173.013C86.8992 171.268 89.1817 169.566 91.4923 167.909C93.7891 166.23 96.1258 164.614 98.4516 162.981C100.802 161.386 103.123 159.745 105.496 158.186C107.865 156.621 110.21 155.017 112.604 153.492L112.753 156.024C109.096 154.296 105.441 152.564 101.821 150.762C98.1803 149.001 94.5821 147.152 90.9756 145.32C83.7966 141.586 76.6446 137.797 69.6797 133.62Z" fill="#E8E8E8"/>
<path d="M75.6016 155.982C78.1724 155.011 80.645 153.797 82.9859 152.357C85.165 151.072 86.9798 149.251 88.2588 147.068C89.3667 144.833 89.7655 142.313 89.4018 139.845C89.0287 137.128 88.3932 134.454 87.5044 131.859C89.4807 134.007 90.9242 136.59 91.7181 139.399C92.6255 142.418 92.334 145.671 90.9042 148.481C89.3618 151.174 86.9598 153.271 84.0832 154.436C81.413 155.599 78.5101 156.128 75.6016 155.982V155.982ZM98.0945 147.337C97.9316 149.387 97.5787 151.418 97.0403 153.404C96.5279 155.357 95.9104 157.281 95.1906 159.168C94.4753 161.056 93.6569 162.904 92.7388 164.702C91.8201 166.543 90.7304 168.294 89.4841 169.931C89.6433 167.88 89.995 165.848 90.5345 163.862C91.0463 161.909 91.6651 159.985 92.3881 158.1C93.1063 156.213 93.926 154.365 94.8436 152.567C95.763 150.726 96.8514 148.976 98.0945 147.337V147.337Z" fill="#E8E8E8"/>
<path d="M68.9473 206.172C68.9473 206.172 58.218 217.182 53.0951 214.513C47.9722 211.843 39.479 213.156 39.479 213.156L37.3897 227.307L15.5606 226.2L0.0199127 216.598L0 197.84C0 197.84 13.3355 192.66 18.5791 187.441C23.8227 182.223 40.2547 175.309 40.2547 175.309L53.6801 186.72C53.6801 186.72 68.9787 196.895 68.9473 206.172Z" fill="#BBBBBB"/>
<path d="M39.4798 213.156C36.154 211.787 32.9042 210.276 29.6682 208.738C28.0602 207.951 26.439 207.188 24.846 206.372C23.2488 205.564 21.6429 204.773 20.062 203.934L21.3132 202.523C24.1757 206.526 26.9404 210.598 29.6515 214.707C32.3303 218.838 34.9772 222.991 37.3905 227.307C34.1794 223.547 31.2018 219.624 28.2562 215.678C25.3429 211.71 22.4831 207.705 19.7212 203.632L19.714 203.621C19.5924 203.442 19.5344 203.227 19.5491 203.011C19.5639 202.795 19.6506 202.59 19.7954 202.429C19.9402 202.268 20.1347 202.16 20.3481 202.122C20.5614 202.084 20.7812 202.119 20.9724 202.221C22.552 203.062 24.1065 203.95 25.6697 204.822C27.2372 205.686 28.7764 206.603 30.3288 207.495C33.4138 209.317 36.4848 211.165 39.4798 213.156Z" fill="#E8E8E8"/>
<path d="M15.5602 226.2C15.9887 222.261 16.606 218.362 17.2866 214.477C17.9565 210.59 18.7359 206.727 19.5422 202.869L21.0643 203.909L15.9176 207.255C14.1778 208.333 12.4605 209.446 10.7023 210.497C8.95673 211.566 7.19046 212.605 5.41827 213.635C3.63274 214.644 1.85268 215.661 0.0195312 216.598C1.60243 215.282 3.23843 214.046 4.86896 212.802C6.51285 211.578 8.16263 210.363 9.83316 209.179C11.491 207.976 13.1897 206.836 14.866 205.661L19.9675 202.246C20.1323 202.136 20.3264 202.077 20.5247 202.078C20.723 202.079 20.9165 202.14 21.0802 202.252C21.244 202.363 21.3705 202.522 21.4435 202.706C21.5165 202.891 21.5326 203.093 21.4897 203.286C20.6441 207.136 19.7716 210.979 18.7896 214.8C17.8183 218.622 16.7837 222.431 15.5602 226.2Z" fill="#E8E8E8"/>
<path d="M0 197.84C1.76662 198.054 3.50887 198.363 5.25348 198.662C6.99257 198.983 8.72793 199.319 10.4547 199.689C13.9118 200.414 17.3438 201.237 20.762 202.115L19.5354 202.92C19.8169 201.308 20.0658 199.69 20.3741 198.082C20.6791 196.473 20.9714 194.863 21.3171 193.261C21.983 190.053 22.7096 186.854 23.6241 183.686C23.5027 186.981 23.1934 190.247 22.8234 193.502C22.6511 195.132 22.4255 196.753 22.2125 198.377C22.0029 200 21.7339 201.615 21.4974 203.234C21.4598 203.492 21.3215 203.724 21.1129 203.879C20.9042 204.035 20.6424 204.101 20.3849 204.063L20.2864 204.044L20.2706 204.04C16.85 203.172 13.4433 202.249 10.0616 201.229C8.36898 200.725 6.68497 200.189 5.00468 199.637C3.32989 199.064 1.65276 198.5 0 197.84Z" fill="#E8E8E8"/>
<path d="M68.9494 206.172C64.8978 206.16 60.8527 206.046 56.8068 205.944C52.7621 205.825 48.7207 205.653 44.6796 205.476C36.5997 205.087 28.5255 204.61 20.4569 204.043L20.4496 204.043C20.2783 204.031 20.1133 203.973 19.9716 203.876C19.8299 203.779 19.7166 203.646 19.6433 203.49C19.57 203.335 19.5394 203.163 19.5546 202.992C19.5698 202.821 19.6303 202.657 19.7298 202.517C21.375 200.203 23.0709 197.925 24.7419 195.63C26.4085 193.331 28.128 191.07 29.8185 188.788C31.5358 186.526 33.2312 184.248 34.987 182.013C36.7385 179.774 38.4608 177.515 40.2569 175.309C38.7633 177.73 37.1958 180.099 35.6576 182.489C34.1237 184.882 32.5293 187.232 30.9569 189.598C29.3577 191.944 27.7875 194.311 26.1644 196.641C24.5456 198.973 22.9519 201.324 21.3074 203.638L20.5804 202.112C28.656 202.568 36.7253 203.122 44.7885 203.773C48.8192 204.112 52.8496 204.455 56.8767 204.852C60.9025 205.266 64.9292 205.668 68.9494 206.172Z" fill="#E8E8E8"/>
<path d="M55.0416 187.684C52.8965 189.417 50.9567 191.39 49.2601 193.565C47.6094 195.606 46.5427 198.055 46.1733 200.654C46.0341 201.922 46.1385 203.205 46.4809 204.434C46.8105 205.704 47.3207 206.92 47.9958 208.046C49.4395 210.391 51.1505 212.561 53.0944 214.512C50.5845 213.116 48.4005 211.201 46.6871 208.896C44.8312 206.488 43.9392 203.475 44.1854 200.445C44.5986 197.469 45.9609 194.705 48.0701 192.564C50.0273 190.468 52.4022 188.805 55.0416 187.684V187.684ZM37.4572 204.16C37.0236 202.173 36.72 200.16 36.5481 198.133C36.3578 196.122 36.2362 194.109 36.1938 192.095C36.1446 190.08 36.1802 188.064 36.2812 186.046C36.364 184.014 36.5805 181.99 36.9294 179.986C37.3654 181.972 37.6701 183.986 37.8415 186.012C38.0305 188.024 38.1541 190.036 38.1928 192.051C38.2384 194.065 38.2047 196.082 38.1024 198.099C38.0191 200.131 37.8036 202.156 37.4572 204.16V204.16Z" fill="#E8E8E8"/>
</svg>
