<svg width="36" height="13" viewBox="0 0 36 13" fill="none" xmlns="http://www.w3.org/2000/svg">
<path d="M1 12H24" stroke="#5757FB" stroke-width="2" stroke-linecap="round" stroke-linejoin="round"/>
<path d="M35.4265 0.530032C35.0866 0.19063 34.6259 0 34.1455 0C33.6652 0 33.2044 0.19063 32.8645 0.530032L24.7325 8.66203C24.4996 8.8936 24.315 9.16904 24.1893 9.47243C24.0635 9.77581 23.9992 10.1011 24 10.4295V11.456C24 11.5886 24.0527 11.7158 24.1465 11.8096C24.2402 11.9034 24.3674 11.956 24.5 11.956H25.5265C25.8549 11.957 26.1802 11.8927 26.4836 11.7671C26.787 11.6414 27.0624 11.4569 27.294 11.224L35.4265 3.09153C35.7658 2.75163 35.9563 2.29101 35.9563 1.81078C35.9563 1.33055 35.7658 0.869934 35.4265 0.530032ZM26.587 10.517C26.305 10.7972 25.924 10.9549 25.5265 10.956H25V10.4295C24.9995 10.2325 25.0381 10.0373 25.1135 9.85526C25.189 9.67322 25.2998 9.50796 25.4395 9.36903L31.611 3.19753L32.761 4.34753L26.587 10.517ZM34.719 2.38453L33.466 3.63803L32.316 2.49053L33.5695 1.23703C33.645 1.16169 33.7346 1.10195 33.8332 1.06124C33.9318 1.02052 34.0375 0.999627 34.1441 0.999743C34.2508 0.999859 34.3564 1.02098 34.4549 1.06191C34.5534 1.10284 34.6429 1.16277 34.7183 1.23828C34.7936 1.31379 34.8533 1.4034 34.8941 1.502C34.9348 1.60059 34.9557 1.70624 34.9555 1.81292C34.9554 1.91959 34.9343 2.02519 34.8934 2.1237C34.8524 2.2222 34.7925 2.31169 34.717 2.38703L34.719 2.38453Z" fill="#171738"/>
</svg>
